<svg width="414" height="72" viewBox="0 0 414 72" fill="none" xmlns="http://www.w3.org/2000/svg">
<path d="M3.36 58H10.92V33.28C10.92 31.3 10.8 28.42 10.5 24.64C11.16 26.68 11.94 28.66 12.9 30.58L23.82 53.02C25.56 56.62 27 58.54 30 58.54C33.48 58.54 35.4 56.08 35.4 51.22V16.06H27.78V38.02C27.78 40 27.96 43.12 28.32 47.32C27.78 45.22 26.94 43.06 25.8 40.72L16.32 21.04C14.52 17.32 12.42 15.46 9.36 15.46C5.4 15.46 3.36 17.98 3.36 22.84V58ZM41.8491 58H49.7691V30.46C49.7691 25.54 52.0491 22.84 56.0091 22.84C59.0691 22.84 61.4091 25.06 61.4091 28C61.4091 31.36 59.0091 33.1 54.2691 33.1H51.8691V39.94H56.0691C60.7491 39.94 63.3291 41.86 63.3291 45.04C63.3291 48.22 60.7491 50.2 56.0691 50.2H51.8691V58H55.4091C60.0291 58 63.5691 57.76 66.8091 55.42C69.9291 53.14 71.6091 49.84 71.6091 46.12C71.6091 41.14 69.3291 37.54 65.0091 35.5C68.2491 33.4 69.6291 30.88 69.6291 27.1C69.6291 20.68 63.7491 15.28 56.0091 15.28C47.6691 15.28 41.8491 21.28 41.8491 30.4V58ZM75.6352 58H87.0352C92.3152 58 96.2152 57.82 99.5752 54.76C101.855 52.66 103.115 49.78 103.115 46.72C103.115 42.76 101.075 39.4 96.9352 36.76L88.2952 31.18C85.6552 29.5 84.0952 28.3 84.0952 26.44C84.0952 24.16 86.0152 23.62 89.9152 23.62H101.435V16.06H88.5352C80.6152 16.06 75.8752 20.32 75.8752 26.38C75.8752 30.34 77.8552 33.58 81.9952 36.28L89.9152 41.44C92.9752 43.42 94.5352 44.98 94.5352 46.9C94.5352 49.6 91.9552 50.2 86.9752 50.2H75.6352V58ZM166.329 28.84H159.249V46.54C159.249 49.84 157.149 52 154.209 52C151.209 52 149.169 49.84 149.169 46.54V28.84H142.089V46.54C142.089 49.84 139.989 52 137.049 52C134.049 52 132.009 49.84 132.009 46.54V28.84H124.929V44.98C124.929 53.56 129.969 58.54 137.049 58.54C140.349 58.54 143.349 57.16 145.629 54.46C148.029 57.16 151.029 58.54 154.209 58.54C161.229 58.54 166.329 53.56 166.329 44.98V28.84ZM222.612 58H229.692V45.94C229.692 38.8 232.452 35.86 239.172 35.86C239.472 35.86 239.712 35.86 240.012 35.86V28.84C239.592 28.84 239.172 28.84 238.812 28.84C234.252 28.84 231.312 30.1 229.392 33.28V28.84H222.612V58ZM243.413 58H250.553V16.06H243.413V58ZM277.412 16.06V43.36C277.412 48.46 274.412 51.58 269.972 51.58C265.772 51.58 262.712 48.34 262.712 43.66C262.712 38.44 265.832 35.2 270.332 35.2C272.072 35.2 273.812 35.74 275.732 36.88V29.62C273.812 28.84 271.772 28.48 269.672 28.48C261.392 28.48 255.332 34.6 255.332 43.42C255.332 52.36 261.512 58.54 269.732 58.54C275.312 58.54 280.232 55.72 282.692 51.28C284.252 48.52 284.492 45.4 284.492 41.44V16.06H277.412ZM331.447 28.84H324.367V46.54C324.367 49.84 322.267 52 319.327 52C316.327 52 314.287 49.84 314.287 46.54V28.84H307.207V46.54C307.207 49.84 305.107 52 302.167 52C299.167 52 297.127 49.84 297.127 46.54V28.84H290.047V44.98C290.047 53.56 295.087 58.54 302.167 58.54C305.467 58.54 308.467 57.16 310.747 54.46C313.147 57.16 316.147 58.54 319.327 58.54C326.347 58.54 331.447 53.56 331.447 44.98V28.84ZM337.456 58H344.596V28.84H337.456V58ZM336.796 20.32C336.796 22.66 338.656 24.58 340.996 24.58C343.336 24.58 345.316 22.72 345.316 20.32C345.316 17.98 343.396 16.06 340.996 16.06C338.596 16.06 336.796 17.98 336.796 20.32ZM371.455 16.06V43.36C371.455 48.46 368.455 51.58 364.015 51.58C359.815 51.58 356.755 48.34 356.755 43.66C356.755 38.44 359.875 35.2 364.375 35.2C366.115 35.2 367.855 35.74 369.775 36.88V29.62C367.855 28.84 365.815 28.48 363.715 28.48C355.435 28.48 349.375 34.6 349.375 43.42C349.375 52.36 355.555 58.54 363.775 58.54C369.355 58.54 374.275 55.72 376.735 51.28C378.295 48.52 378.535 45.4 378.535 41.44V16.06H371.455ZM411.93 47.32L404.91 45.46C403.89 49.3 401.01 51.58 397.65 51.58C393.63 51.58 390.21 47.98 390.21 43.36C390.21 38.68 393.57 35.14 397.65 35.14C399.21 35.14 400.65 35.74 402.09 36.82L393.39 42.4L396.21 47.14L411.33 37.42C408.27 31.42 403.53 28.24 397.65 28.24C393.75 28.24 390.09 29.8 387.27 32.68C384.45 35.56 382.95 39.34 382.95 43.42C382.95 47.5 384.45 51.28 387.27 54.16C390.03 57.04 393.75 58.54 397.65 58.54C404.31 58.54 409.71 54.52 411.93 47.32Z" fill="url(#paint0_linear_103_2)"/>
<path d="M185.314 21.2483C176.17 35.6783 181.888 59.0214 199.142 64.3148" stroke="#35378B" stroke-width="3"/>
<path d="M185.314 21.5277C203.248 23.1218 212.356 44.144 208.23 59.9686" stroke="#35378B" stroke-width="3"/>
<path d="M185.116 21.2483L204.081 62.7343" stroke="#35378B" stroke-width="3"/>
<path d="M175.239 30.7308C184.596 35.6775 196.323 29.1526 200.13 20.0631" stroke="#35378B" stroke-width="3"/>
<path d="M172.67 40.806C186.417 45.2159 203.095 38.343 209.02 25.0018" stroke="#35378B" stroke-width="3"/>
<path d="M174.448 51.8689C189.902 55.6848 208.816 48.7749 214.947 33.299" stroke="#35378B" stroke-width="3"/>
<path d="M216.718 41.8156C216.793 47.8556 214.532 53.6779 210.432 58.0061C206.331 62.3343 200.726 64.8152 194.845 64.9049C188.963 64.9946 183.285 62.6858 179.056 58.4846C174.827 54.2835 172.392 48.5328 172.284 42.4934C172.176 36.454 174.405 30.6187 178.481 26.2668C182.557 21.9148 188.149 19.4014 194.03 19.2776C199.911 19.1538 205.601 21.4296 209.853 25.6061C214.105 29.7827 216.572 35.5191 216.714 41.5579" stroke="#35378B" stroke-width="3"/>
<path d="M180.573 59.9686C194.306 64.8033 211.55 57.6491 216.725 43.7693" stroke="#35378B" stroke-width="3"/>
<path d="M216.474 45.458C216.682 44.0353 216.758 42.5957 216.702 41.1584" stroke="#35378B" stroke-width="3"/>
<defs>
<linearGradient id="paint0_linear_103_2" x1="207" y1="0" x2="207" y2="72" gradientUnits="userSpaceOnUse">
<stop stop-color="#000080"/>
<stop offset="0.919792" stop-color="#21257A" stop-opacity="0.788542"/>
<stop offset="1" stop-color="#737373" stop-opacity="0"/>
</linearGradient>
</defs>
</svg>
